<svg width="12" height="10" viewBox="0 0 12 10" fill="none" xmlns="http://www.w3.org/2000/svg">
<path d="M12.0004 5.00003C12.0004 5.13264 11.9477 5.25982 11.8539 5.35359C11.7602 5.44736 11.633 5.50003 11.5004 5.50003H1.70727L5.35414 9.14628C5.4006 9.19274 5.43745 9.24789 5.46259 9.30859C5.48773 9.36928 5.50067 9.43434 5.50067 9.50003C5.50067 9.56573 5.48773 9.63079 5.46259 9.69148C5.43745 9.75218 5.4006 9.80733 5.35414 9.85378C5.30769 9.90024 5.25254 9.93709 5.19184 9.96223C5.13115 9.98737 5.06609 10.0003 5.00039 10.0003C4.9347 10.0003 4.86964 9.98737 4.80895 9.96223C4.74825 9.93709 4.6931 9.90024 4.64664 9.85378L0.146643 5.35378C0.100155 5.30735 0.0632756 5.2522 0.0381135 5.1915C0.0129513 5.13081 0 5.06574 0 5.00003C0 4.93433 0.0129513 4.86926 0.0381135 4.80856C0.0632756 4.74786 0.100155 4.69272 0.146643 4.64628L4.64664 0.146284C4.74046 0.0524635 4.86771 -0.000244142 5.00039 -0.000244141C5.13308 -0.00024414 5.26032 0.0524635 5.35414 0.146284C5.44796 0.240104 5.50067 0.367352 5.50067 0.500034C5.50067 0.632716 5.44796 0.759964 5.35414 0.853784L1.70727 4.50003H11.5004C11.633 4.50003 11.7602 4.55271 11.8539 4.64648C11.9477 4.74025 12.0004 4.86743 12.0004 5.00003Z" fill="#001A70"/>
</svg>
