<svg width="23" height="24" viewBox="0 0 23 24" fill="none" xmlns="http://www.w3.org/2000/svg">
<g clip-path="url(#clip0_289_53299)">
<path d="M15.8045 11.4502L9.13858 17.8135C9.07664 17.8726 9.00312 17.9195 8.9222 17.9515C8.84128 17.9835 8.75455 18 8.66696 18C8.57938 18 8.49265 17.9835 8.41173 17.9515C8.33081 17.9195 8.25728 17.8726 8.19535 17.8135C8.13342 17.7544 8.08429 17.6842 8.05077 17.607C8.01725 17.5297 8 17.4469 8 17.3633C8 17.2797 8.01725 17.1969 8.05077 17.1197C8.08429 17.0424 8.13342 16.9722 8.19535 16.9131L14.3905 11L8.19535 5.08689C8.07027 4.96749 8 4.80554 8 4.63669C8 4.46783 8.07027 4.30588 8.19535 4.18648C8.32043 4.06708 8.49007 4 8.66696 4C8.84385 4 9.0135 4.06708 9.13858 4.18648L15.8045 10.5498C15.8665 10.6089 15.9156 10.6791 15.9492 10.7563C15.9827 10.8336 16 10.9164 16 11C16 11.0836 15.9827 11.1664 15.9492 11.2437C15.9156 11.3209 15.8665 11.3911 15.8045 11.4502Z" fill="#484964"/>
</g>
<defs>
<clipPath id="clip0_289_53299">
<rect y="0.5" width="23" height="23" rx="8" fill="white"/>
</clipPath>
</defs>
</svg>
