<svg width="11" height="14" viewBox="0 0 11 14" fill="none" xmlns="http://www.w3.org/2000/svg">
<path d="M8 8.49991C8 8.63252 7.94732 8.7597 7.85355 8.85346C7.75979 8.94723 7.63261 8.99991 7.5 8.99991H3.5C3.36739 8.99991 3.24021 8.94723 3.14645 8.85346C3.05268 8.7597 3 8.63252 3 8.49991C3 8.3673 3.05268 8.24012 3.14645 8.14636C3.24021 8.05259 3.36739 7.99991 3.5 7.99991H7.5C7.63261 7.99991 7.75979 8.05259 7.85355 8.14636C7.94732 8.24012 8 8.3673 8 8.49991ZM7.5 5.99991H3.5C3.36739 5.99991 3.24021 6.05259 3.14645 6.14636C3.05268 6.24012 3 6.3673 3 6.49991C3 6.63252 3.05268 6.75969 3.14645 6.85346C3.24021 6.94723 3.36739 6.99991 3.5 6.99991H7.5C7.63261 6.99991 7.75979 6.94723 7.85355 6.85346C7.94732 6.75969 8 6.63252 8 6.49991C8 6.3673 7.94732 6.24012 7.85355 6.14636C7.75979 6.05259 7.63261 5.99991 7.5 5.99991ZM11 1.99991V12.4999C11 12.7651 10.8946 13.0195 10.7071 13.207C10.5196 13.3946 10.2652 13.4999 10 13.4999H1C0.734784 13.4999 0.48043 13.3946 0.292893 13.207C0.105357 13.0195 0 12.7651 0 12.4999V1.99991C0 1.73469 0.105357 1.48034 0.292893 1.2928C0.48043 1.10527 0.734784 0.99991 1 0.99991H3.26625C3.54719 0.685362 3.89139 0.433695 4.27633 0.261383C4.66127 0.0890714 5.07826 0 5.5 0C5.92174 0 6.33873 0.0890714 6.72367 0.261383C7.1086 0.433695 7.45281 0.685362 7.73375 0.99991H10C10.2652 0.99991 10.5196 1.10527 10.7071 1.2928C10.8946 1.48034 11 1.73469 11 1.99991ZM3.5 2.99991H7.5C7.5 2.46948 7.28929 1.96077 6.91421 1.5857C6.53914 1.21062 6.03043 0.99991 5.5 0.99991C4.96957 0.99991 4.46086 1.21062 4.08579 1.5857C3.71071 1.96077 3.5 2.46948 3.5 2.99991ZM10 1.99991H8.32812C8.44186 2.32104 8.49999 2.65923 8.5 2.99991V3.49991C8.5 3.63252 8.44732 3.75969 8.35355 3.85346C8.25979 3.94723 8.13261 3.99991 8 3.99991H3C2.86739 3.99991 2.74021 3.94723 2.64645 3.85346C2.55268 3.75969 2.5 3.63252 2.5 3.49991V2.99991C2.50001 2.65923 2.55814 2.32104 2.67188 1.99991H1V12.4999H10V1.99991Z" fill="#626262"/>
</svg>
