<svg width="33" height="32" viewBox="0 0 33 32" fill="none" xmlns="http://www.w3.org/2000/svg">
<g clip-path="url(#clip0_328_2350)">
<g clip-path="url(#clip1_328_2350)">
<path d="M0.700195 0H32.7002V32H0.700195V0Z" fill="#0B0C0C"/>
<path d="M18.0021 25.3571V17.0051H20.8021L21.2221 13.7501H18.0021V11.6721C18.0021 10.7301 18.2641 10.0871 19.6151 10.0871H21.3391V7.17609C20.5047 7.08778 19.6661 7.04504 18.8271 7.04808C18.2569 7.0068 17.6846 7.09066 17.1502 7.2938C16.6158 7.49694 16.1323 7.81445 15.7335 8.22408C15.3348 8.63371 15.0304 9.12557 14.8416 9.66521C14.6529 10.2048 14.5845 10.7792 14.6411 11.3481V13.7481H11.8301V17.0031H14.6411V25.3551L18.0021 25.3571Z" fill="#F0F0F0"/>
</g>
</g>
<defs>
<clipPath id="clip0_328_2350">
<rect width="32" height="32" fill="white" transform="translate(0.700195)"/>
</clipPath>
<clipPath id="clip1_328_2350">
<rect width="32" height="32" fill="white" transform="translate(0.700195)"/>
</clipPath>
</defs>
</svg>
