<svg width="33" height="32" viewBox="0 0 33 32" fill="none" xmlns="http://www.w3.org/2000/svg">
<g clip-path="url(#clip0_328_2338)">
<g clip-path="url(#clip1_328_2338)">
<path d="M0.900391 0H32.9004V32H0.900391V0Z" fill="#0B0C0C"/>
<path d="M7.95332 12.7991H11.7433V24.9741H7.95332V12.7991ZM9.85332 6.7461C10.287 6.74729 10.7107 6.877 11.0707 7.11884C11.4307 7.36068 11.711 7.70381 11.8761 8.10488C12.0412 8.50594 12.0838 8.94694 11.9984 9.37216C11.9129 9.79739 11.7034 10.1878 11.3962 10.494C11.0891 10.8002 10.698 11.0084 10.2725 11.0925C9.84704 11.1766 9.40617 11.1326 9.00564 10.9662C8.60511 10.7998 8.26287 10.5185 8.02218 10.1577C7.78148 9.79687 7.65312 9.37282 7.65332 8.9391C7.65345 8.65056 7.7105 8.36488 7.82119 8.09841C7.93188 7.83195 8.09405 7.58994 8.2984 7.38623C8.50276 7.18253 8.74529 7.02113 9.0121 6.91129C9.27892 6.80145 9.56478 6.74531 9.85332 6.7461Z" fill="#F0F0F0"/>
<path d="M14.1152 12.7992H17.7432V14.4622H17.7952C18.158 13.841 18.6827 13.3299 19.3132 12.9835C19.9437 12.6371 20.6563 12.4683 21.3752 12.4952C25.2042 12.4952 25.9122 15.0162 25.9122 18.2952V24.9732H22.1322V19.0542C22.1322 17.6422 22.1042 15.8262 20.1652 15.8262C18.1962 15.8262 17.8952 17.3642 17.8952 18.9522V24.9752H14.1152V12.7992Z" fill="#F0F0F0"/>
</g>
</g>
<defs>
<clipPath id="clip0_328_2338">
<rect width="32" height="32" fill="white" transform="translate(0.900391)"/>
</clipPath>
<clipPath id="clip1_328_2338">
<rect width="32" height="32" fill="white" transform="translate(0.900391)"/>
</clipPath>
</defs>
</svg>
