<svg width="16" height="16" viewBox="0 0 16 16" fill="none" xmlns="http://www.w3.org/2000/svg">
<path d="M8.00016 9.41658C8.78257 9.41658 9.41683 8.78232 9.41683 7.99992C9.41683 7.21752 8.78257 6.58325 8.00016 6.58325C7.21776 6.58325 6.5835 7.21752 6.5835 7.99992C6.5835 8.78232 7.21776 9.41658 8.00016 9.41658Z" stroke="#626262" stroke-width="1.5" stroke-linecap="round" stroke-linejoin="round"/>
<path d="M12.6667 9.41658C13.4491 9.41658 14.0833 8.78232 14.0833 7.99992C14.0833 7.21752 13.4491 6.58325 12.6667 6.58325C11.8843 6.58325 11.25 7.21752 11.25 7.99992C11.25 8.78232 11.8843 9.41658 12.6667 9.41658Z" stroke="#626262" stroke-width="1.5" stroke-linecap="round" stroke-linejoin="round"/>
<path d="M3.33317 9.41658C4.11557 9.41658 4.74984 8.78232 4.74984 7.99992C4.74984 7.21751 4.11557 6.58325 3.33317 6.58325C2.55077 6.58325 1.9165 7.21751 1.9165 7.99992C1.9165 8.78232 2.55077 9.41658 3.33317 9.41658Z" stroke="#626262" stroke-width="1.5" stroke-linecap="round" stroke-linejoin="round"/>
</svg>
