<svg width="805" height="18" viewBox="0 0 805 18" fill="none" xmlns="http://www.w3.org/2000/svg">
<g clip-path="url(#clip0_328_2319)">
<path d="M35.7647 13.2691V1.16083L31.4627 3.90152V17.571H41V13.2691H35.7647ZM25.3874 12.4545C24.8098 12.9614 24.0984 13.2911 23.3382 13.4041C22.5781 13.5171 21.8015 13.4086 21.1014 13.0917C20.4013 12.7748 19.8074 12.2628 19.3907 11.6171C18.9741 10.9714 18.7523 10.2193 18.7521 9.45077C18.7521 7.24465 20.5424 5.45429 22.7486 5.45429C24.1656 5.45429 25.4129 6.19249 26.1171 7.30404L29.7403 4.99609C28.9927 3.81862 27.9599 2.84896 26.7376 2.17703C25.5154 1.50509 24.1433 1.15264 22.7486 1.15234C19.6515 1.15234 16.9532 2.85785 15.5277 5.36944C14.8031 4.09017 13.7523 3.02589 12.4823 2.28507C11.2123 1.54426 9.76867 1.15341 8.29843 1.15234C3.72496 1.15234 0 4.8773 0 9.45077C0 14.0242 3.72496 17.7492 8.29843 17.7492C11.3955 17.7492 14.0938 16.0437 15.5192 13.5321C16.1258 14.606 16.9642 15.5311 17.9735 16.2401C18.9827 16.949 20.1373 17.424 21.3532 17.6305C22.5692 17.8369 23.8158 17.7696 25.0025 17.4335C26.1892 17.0973 27.2859 16.5008 28.213 15.6873L29.8591 17.571H30.1136V10.1211H23.3255L25.3874 12.4545ZM8.29843 13.4557C6.0923 13.4557 4.30195 11.6654 4.30195 9.45926C4.30195 7.25313 6.0923 5.46277 8.29843 5.46277C10.5046 5.46277 12.3034 7.24465 12.3034 9.45077C12.3034 11.6569 10.5046 13.4557 8.29843 13.4557Z" fill="#0B0C0C"/>
</g>
<defs>
<clipPath id="clip0_328_2319">
<rect width="41" height="17" fill="white" transform="translate(0 0.955078)"/>
</clipPath>
</defs>
</svg>
