<svg width="16" height="16" viewBox="0 0 16 16" fill="none" xmlns="http://www.w3.org/2000/svg">
<path d="M13.4103 3.85083V6.96276H10.2983" stroke="#484964" stroke-width="1.2" stroke-linecap="round" stroke-linejoin="round"/>
<path d="M2 12.1493V9.03735H5.11193" stroke="#484964" stroke-width="1.2" stroke-linecap="round" stroke-linejoin="round"/>
<path d="M3.30182 6.44395C3.56487 5.70061 4.01193 5.03602 4.6013 4.51218C5.19066 3.98835 5.90312 3.62235 6.67219 3.44834C7.44126 3.27433 8.24188 3.29797 8.99935 3.51707C9.75681 3.73616 10.4464 4.14357 11.0038 4.70127L13.4104 6.96261M2 9.03723L4.40656 11.2986C4.96398 11.8563 5.6536 12.2637 6.41106 12.4828C7.16852 12.7019 7.96914 12.7255 8.73821 12.5515C9.50729 12.3775 10.2197 12.0115 10.8091 11.4877C11.3985 10.9638 11.8455 10.2992 12.1086 9.55588" stroke="#626262" stroke-width="1.2" stroke-linecap="round" stroke-linejoin="round"/>
</svg>
