<svg width="18" height="16" viewBox="0 0 18 16" fill="none" xmlns="http://www.w3.org/2000/svg">
<path d="M18 14.4445L14.3334 11.1852C15.2501 10 15.8333 8.59261 15.8333 7.03706C15.8333 3.18521 12.2499 0 7.91663 0C3.58332 0 0 3.18521 0 7.03706C0 10.8889 3.58332 14.0741 7.91663 14.0741C9.66662 14.0741 11.25 13.5555 12.5834 12.7407L16.2499 16L18 14.4445ZM2.49999 7.11111C2.49999 4.44445 4.91664 2.2963 7.91663 2.2963C10.9166 2.2963 13.3333 4.44445 13.3333 7.11111C13.3333 9.77778 10.9166 11.9259 7.91663 11.9259C4.91664 11.9259 2.49999 9.77778 2.49999 7.11111Z" fill="#626262"/>
</svg>
