<svg width="33" height="32" viewBox="0 0 33 32" fill="none" xmlns="http://www.w3.org/2000/svg">
<g clip-path="url(#clip0_328_2344)">
<g clip-path="url(#clip1_328_2344)">
<path d="M0.799805 0H32.7998V32H0.799805V0Z" fill="#0B0C0C"/>
<path d="M13.3859 23.5071C14.8014 23.5168 16.2047 23.2451 17.5143 22.7079C18.8239 22.1707 20.0137 21.3787 21.0146 20.3778C22.0155 19.3768 22.8076 18.187 23.3448 16.8774C23.882 15.5678 24.1536 14.1645 24.1439 12.7491C24.1439 12.5851 24.1439 12.4221 24.1329 12.2601C24.8727 11.7248 25.5114 11.0622 26.0189 10.3031C25.3287 10.6089 24.5966 10.8095 23.8469 10.8981C24.6361 10.4256 25.2267 9.68249 25.5089 8.80707C24.767 9.24748 23.9553 9.55794 23.1089 9.72507C22.539 9.11873 21.7851 8.71717 20.9639 8.58256C20.1427 8.44794 19.3 8.58778 18.5663 8.98042C17.8326 9.37306 17.2488 9.99661 16.9053 10.7545C16.5617 11.5125 16.4776 12.3625 16.6659 13.1731C15.1628 13.0977 13.6923 12.7071 12.3499 12.0266C11.0075 11.3461 9.82322 10.3909 8.87392 9.22307C8.39058 10.0555 8.24263 11.0408 8.46018 11.9784C8.67773 12.916 9.24443 13.7355 10.0449 14.2701C9.44326 14.2523 8.8547 14.0901 8.32891 13.7971V13.8451C8.32916 14.7179 8.63132 15.5638 9.18413 16.2393C9.73693 16.9147 10.5064 17.3782 11.3619 17.5511C10.8054 17.7029 10.2214 17.7251 9.65491 17.6161C9.89642 18.3674 10.3667 19.0244 11 19.4952C11.6333 19.9661 12.3979 20.2272 13.1869 20.2421C11.8469 21.2954 10.1913 21.8667 8.48692 21.8641C8.1861 21.8633 7.88558 21.845 7.58691 21.8091C9.31671 22.9213 11.3304 23.5116 13.3869 23.5091" fill="#F0F0F0"/>
</g>
</g>
<defs>
<clipPath id="clip0_328_2344">
<rect width="32" height="32" fill="white" transform="translate(0.799805)"/>
</clipPath>
<clipPath id="clip1_328_2344">
<rect width="32" height="32" fill="white" transform="translate(0.799805)"/>
</clipPath>
</defs>
</svg>
