<svg width="20" height="20" viewBox="0 0 20 20" fill="none" xmlns="http://www.w3.org/2000/svg">
<path fill-rule="evenodd" clip-rule="evenodd" d="M9.7917 15.4167C9.38649 15.4167 9.058 15.0883 9.058 14.6831L9.058 4.90044C9.058 4.49523 9.38649 4.16675 9.79169 4.16675C10.1969 4.16675 10.5254 4.49523 10.5254 4.90044L10.5254 14.6831C10.5254 15.0883 10.1969 15.4167 9.7917 15.4167Z" fill="#626262"/>
<path fill-rule="evenodd" clip-rule="evenodd" d="M15.2016 10.3105C14.9151 10.597 14.4505 10.597 14.164 10.3105L9.7915 5.93799L5.419 10.3105C5.13247 10.597 4.66792 10.597 4.3814 10.3105C4.09487 10.024 4.09487 9.55942 4.3814 9.27289L9.2727 4.38159C9.55923 4.09506 10.0238 4.09506 10.3103 4.38159L15.2016 9.27289C15.4881 9.55942 15.4881 10.024 15.2016 10.3105Z" fill="#626262"/>
</svg>
