<svg width="32" height="32" viewBox="0 0 32 32" fill="none" xmlns="http://www.w3.org/2000/svg">
<g clip-path="url(#clip0_328_2332)">
<g clip-path="url(#clip1_328_2332)">
<path d="M0 0H32V32H0V0Z" fill="#0B0C0C"/>
<path d="M26.4663 11.6581C26.3668 10.8984 26.0773 10.1761 25.6243 9.5581C25.0649 8.99075 24.304 8.66728 23.5073 8.6581C20.5473 8.4441 16.1073 8.44409 16.1073 8.44409H16.0993C16.0993 8.44409 11.6603 8.4441 8.69934 8.6581C7.90227 8.66702 7.14097 8.9905 6.5813 9.5581C6.12954 10.1767 5.84007 10.8987 5.73932 11.6581C5.60791 12.7948 5.53748 13.9378 5.52832 15.0821V16.6821C5.53743 17.8254 5.60786 18.9674 5.73932 20.1031C5.84032 20.8624 6.12977 21.5843 6.5813 22.2031C7.2256 22.7723 8.0527 23.0916 8.91235 23.1031C10.6024 23.2651 16.1023 23.3141 16.1023 23.3141C16.1023 23.3141 20.5433 23.3091 23.5023 23.0951C24.2988 23.0846 25.0592 22.7613 25.6193 22.1951C26.072 21.577 26.3616 20.8547 26.4613 20.0951C26.5927 18.9593 26.6631 17.8174 26.6723 16.6741V15.0741C26.6645 13.9326 26.5957 12.7923 26.4663 11.6581ZM13.9213 18.6181V12.6751L19.6353 15.6551L13.9213 18.6181Z" fill="#F0F0F0"/>
</g>
</g>
<defs>
<clipPath id="clip0_328_2332">
<rect width="32" height="32" fill="white"/>
</clipPath>
<clipPath id="clip1_328_2332">
<rect width="32" height="32" fill="white"/>
</clipPath>
</defs>
</svg>
